<?xml version="1.0" encoding="UTF-8" standalone="no"?>
<!-- Created with Inkscape (http://www.inkscape.org/) -->

<svg
   xmlns:dc="http://purl.org/dc/elements/1.1/"
   xmlns:cc="http://creativecommons.org/ns#"
   xmlns:rdf="http://www.w3.org/1999/02/22-rdf-syntax-ns#"
   xmlns:svg="http://www.w3.org/2000/svg"
   xmlns="http://www.w3.org/2000/svg"
   xmlns:sodipodi="http://sodipodi.sourceforge.net/DTD/sodipodi-0.dtd"
   xmlns:inkscape="http://www.inkscape.org/namespaces/inkscape"
   width="80.697922mm"
   height="80.697922mm"
   viewBox="0 0 80.697922 80.697922"
   version="1.1"
   id="svg8"
   inkscape:version="0.92.4 (unknown)"
   sodipodi:docname="drawing.svg">
  <defs
     id="defs2" />
  <sodipodi:namedview
     id="base"
     pagecolor="#ffffff"
     bordercolor="#666666"
     borderopacity="1.0"
     inkscape:pageopacity="0.0"
     inkscape:pageshadow="2"
     inkscape:zoom="0.35"
     inkscape:cx="-135.96741"
     inkscape:cy="119.18356"
     inkscape:document-units="mm"
     inkscape:current-layer="layer1"
     showgrid="true"
     objecttolerance="20"
     inkscape:snap-tangential="true"
     inkscape:snap-perpendicular="true"
     inkscape:window-width="1920"
     inkscape:window-height="1051"
     inkscape:window-x="0"
     inkscape:window-y="29"
     inkscape:window-maximized="0">
    <inkscape:grid
       type="xygrid"
       id="grid3741"
       dotted="false"
       originx="-8.4801204"
       originy="-213.26088" />
  </sodipodi:namedview>
  <metadata
     id="metadata5">
    <rdf:RDF>
      <cc:Work
         rdf:about="">
        <dc:format>image/svg+xml</dc:format>
        <dc:type
           rdf:resource="http://purl.org/dc/dcmitype/StillImage" />
        <dc:title />
      </cc:Work>
    </rdf:RDF>
  </metadata>
  <g
     inkscape:label="Layer 1"
     inkscape:groupmode="layer"
     id="layer1"
     transform="translate(-8.4801207,-3.041189)">
    <rect
       id="rect3713"
       width="80.697922"
       height="80.697922"
       x="8.4801207"
       y="3.041189"
       style="fill:#ffffff;stroke-width:0.26152101"
       ry="20.115061"
       rx="0"
       inkscape:export-xdpi="500"
       inkscape:export-ydpi="500" />
    <path
       id="path3728"
       d="m 22.00692,65.630609 26.926604,-26.689801 -3.926833,-3.947894 -2.019493,1.97389 c -1.093817,1.084312 -2.860899,1.084312 -3.954812,0 l -1.991407,-1.97389 c -1.093924,-1.084292 -1.093924,-2.835832 0,-3.92003 L 52.916434,15.337035 c 1.093924,-1.084296 2.860909,-1.084296 3.954823,0 l 1.991514,1.973891 c 1.093806,1.084301 1.093806,2.835738 0,3.92004 l -1.991514,1.918306 3.98291,3.975728 c 1.093924,-1.084302 2.860899,-1.084302 3.954821,0 1.093912,1.084291 1.093912,2.863583 0,3.947884 l 3.954811,3.92003 1.991518,-1.973881 c 1.093922,-1.084302 2.88899,-1.084302 3.982912,0 l 1.963416,1.973881 c 1.093819,1.084301 1.093819,2.863593 0,3.947894 L 60.854167,54.648804 c -1.093914,1.084301 -2.888986,1.084301 -3.98291,0 L 54.90784,52.702767 c -1.121903,-1.084302 -1.121903,-2.863696 0,-3.947895 l 1.963417,-1.973993 -3.954823,-3.920041 -26.954691,26.717655 c -1.093816,1.0842 -2.860899,1.0842 -3.954823,0 -1.093914,-1.084291 -1.093914,-2.863582 0,-3.947884 m 49.645982,-3.558675 a 5.6097096,5.5603755 0 0 1 5.609651,5.56041 v 2.780153 H 49.214032 v -2.780153 a 5.6097096,5.5603755 0 0 1 5.609743,-5.56041 z"
       inkscape:connector-curvature="0"
       style="stroke-width:2.79249382"
       inkscape:export-xdpi="500"
       inkscape:export-ydpi="500" />
  </g>
</svg>
